<svg width="25" height="19" viewBox="0 0 25 19" fill="none"
  xmlns="http://www.w3.org/2000/svg">
  <path d="M6.59984 7.56001C6.59984 7.56001 6.91984 10.59 10.3898 10.43C13.8598 10.27 20.9198 6.87002 20.9198 6.87002C20.9198 6.87002 20.0498 6.34001 17.2898 3.74001C17.2898 3.74001 12.7698 -1.35998 8.48985 1.46002C5.00985 3.25002 4.33984 6.82002 4.33984 6.82002C4.33984 6.82002 5.26984 3.61001 9.10984 3.09001C9.10984 3.09001 12.9198 2.76001 14.3998 6.45001C14.3998 6.45001 12.0598 7.66001 11.1198 7.84001C10.4098 7.98001 9.20984 8.48001 6.59984 7.56001Z" fill="#B52E25"/>
  <path d="M4.45996 11.82C4.45996 11.82 5.95996 17 11.65 14.99C11.73 14.96 11.82 14.93 11.9 14.9C15.03 13.63 15.38 13.51 16.68 13.03C18.38 12.41 22.36 10.57 24.33 13.79C24.33 13.79 22.62 13.7 19.63 15.14C16.64 16.58 14.47 17.71 12.48 17.81C10.25 17.93 5.97996 17.49 4.45996 11.82Z" fill="#B52E25"/>
  <path d="M14.5795 1.59001C14.5795 1.59001 10.5995 -1.10999 6.03953 0.740007C1.47953 2.59001 1.04953 7.51001 1.04953 7.51001C1.04953 7.51001 -0.130467 14.64 7.12953 17.71C7.12953 17.71 10.4295 19.05 15.0195 17.25C15.0195 17.25 7.59953 18.02 4.85953 12.72C1.97953 7.15001 6.97953 2.48001 6.97953 2.48001C6.97953 2.48001 10.6995 -0.759995 14.5795 1.59001Z" fill="#F16622"/>
</svg>
