<svg width="1182" height="118" viewBox="0 0 1182 118" fill="none" xmlns="http://www.w3.org/2000/svg">
<rect x="248.361" y="0.5" width="192.226" height="116.727" rx="19.5" fill="#F37530" stroke="#184376"/>
<rect x="1.39062" y="0.5" width="192.226" height="116.727" rx="19.5" fill="#F37530" stroke="#184376"/>
<rect x="495.332" y="0.5" width="192.226" height="116.727" rx="19.5" fill="#F37530" stroke="#184376"/>
<rect x="742.303" y="0.5" width="192.226" height="116.727" rx="19.5" fill="#F37530" stroke="#184376"/>
<rect x="989.273" y="0.5" width="192.226" height="116.727" rx="19.5" fill="#F37530" stroke="#184376"/>
<path d="M42.3662 53.2215H45.6721L48.8553 59.2335H48.9916L52.1748 53.2215H55.4807L50.389 62.2463V67.1812H47.458V62.2463L42.3662 53.2215Z" fill="white"/>
<path d="M69.0775 60.2014C69.0775 61.7237 68.7889 63.0188 68.2118 64.0866C67.6393 65.1545 66.8577 65.9702 65.867 66.5337C64.8809 67.0926 63.7722 67.3721 62.5407 67.3721C61.3001 67.3721 60.1868 67.0904 59.2007 66.5269C58.2146 65.9634 57.4353 65.1477 56.8627 64.0798C56.2902 63.0119 56.0039 61.7191 56.0039 60.2014C56.0039 58.6791 56.2902 57.384 56.8627 56.3161C57.4353 55.2482 58.2146 54.4348 59.2007 53.8759C60.1868 53.3124 61.3001 53.0306 62.5407 53.0306C63.7722 53.0306 64.8809 53.3124 65.867 53.8759C66.8577 54.4348 67.6393 55.2482 68.2118 56.3161C68.7889 57.384 69.0775 58.6791 69.0775 60.2014ZM66.0851 60.2014C66.0851 59.2153 65.9375 58.3837 65.6421 57.7066C65.3513 57.0295 64.94 56.516 64.4083 56.1661C63.8767 55.8162 63.2541 55.6413 62.5407 55.6413C61.8272 55.6413 61.2047 55.8162 60.673 56.1661C60.1414 56.516 59.7278 57.0295 59.4325 57.7066C59.1416 58.3837 58.9962 59.2153 58.9962 60.2014C58.9962 61.1875 59.1416 62.019 59.4325 62.6961C59.7278 63.3732 60.1414 63.8867 60.673 64.2366C61.2047 64.5865 61.8272 64.7615 62.5407 64.7615C63.2541 64.7615 63.8767 64.5865 64.4083 64.2366C64.94 63.8867 65.3513 63.3732 65.6421 62.6961C65.9375 62.019 66.0851 61.1875 66.0851 60.2014Z" fill="white"/>
<path d="M79.8864 53.2215H82.8378V62.2871C82.8378 63.305 82.5947 64.1957 82.1085 64.9591C81.6268 65.7226 80.952 66.3178 80.0841 66.745C79.2161 67.1676 78.205 67.3789 77.0508 67.3789C75.8921 67.3789 74.8787 67.1676 74.0108 66.745C73.1428 66.3178 72.468 65.7226 71.9863 64.9591C71.5046 64.1957 71.2638 63.305 71.2638 62.2871V53.2215H74.2153V62.0349C74.2153 62.5666 74.3311 63.0392 74.5629 63.4527C74.7992 63.8663 75.1309 64.1912 75.5581 64.4275C75.9852 64.6638 76.4828 64.7819 77.0508 64.7819C77.6234 64.7819 78.121 64.6638 78.5436 64.4275C78.9707 64.1912 79.3002 63.8663 79.532 63.4527C79.7682 63.0392 79.8864 62.5666 79.8864 62.0349V53.2215Z" fill="white"/>
<path d="M85.2661 67.1812V53.2215H90.7737C91.8279 53.2215 92.7277 53.4101 93.4729 53.7873C94.2227 54.1599 94.793 54.6893 95.1838 55.3754C95.5792 56.0571 95.7768 56.8591 95.7768 57.7816C95.7768 58.7086 95.5769 59.5061 95.177 60.1741C94.7771 60.8376 94.1977 61.3465 93.4389 61.701C92.6845 62.0554 91.7711 62.2326 90.6987 62.2326H87.0111V59.8606H90.2216C90.785 59.8606 91.2531 59.7833 91.6257 59.6288C91.9983 59.4743 92.2755 59.2425 92.4573 58.9335C92.6436 58.6245 92.7368 58.2406 92.7368 57.7816C92.7368 57.3181 92.6436 56.9273 92.4573 56.6092C92.2755 56.2911 91.9961 56.0503 91.6189 55.8867C91.2463 55.7185 90.776 55.6345 90.2079 55.6345H88.2176V67.1812H85.2661ZM92.8049 60.8285L96.2744 67.1812H93.0162L89.6217 60.8285H92.8049Z" fill="white"/>
<path d="M107.254 67.1812H102.305V53.2215H107.295C108.699 53.2215 109.908 53.501 110.921 54.0599C111.934 54.6143 112.714 55.4118 113.259 56.4524C113.809 57.493 114.084 58.7381 114.084 60.1877C114.084 61.6419 113.809 62.8915 113.259 63.9367C112.714 64.9818 111.93 65.7839 110.907 66.3428C109.889 66.9018 108.672 67.1812 107.254 67.1812ZM105.257 64.6524H107.131C108.004 64.6524 108.737 64.4979 109.333 64.1889C109.933 63.8753 110.382 63.3914 110.682 62.737C110.987 62.0781 111.139 61.2284 111.139 60.1877C111.139 59.1562 110.987 58.3133 110.682 57.6589C110.382 57.0045 109.935 56.5229 109.34 56.2138C108.744 55.9048 108.01 55.7503 107.138 55.7503H105.257V64.6524Z" fill="white"/>
<path d="M117.889 67.1812H114.726L119.545 53.2215H123.349L128.161 67.1812H124.998L121.501 56.4115H121.392L117.889 67.1812ZM117.691 61.6941H125.162V63.998H117.691V61.6941Z" fill="white"/>
<path d="M127.604 55.6549V53.2215H139.069V55.6549H134.795V67.1812H131.878V55.6549H127.604Z" fill="white"/>
<path d="M141.657 67.1812H138.494L143.314 53.2215H147.117L151.929 67.1812H148.767L145.27 56.4115H145.161L141.657 67.1812ZM141.46 61.6941H148.93V63.998H141.46V61.6941Z" fill="white"/>
<path d="M286.096 50.6041C286.096 52.1264 285.807 53.4214 285.23 54.4893C284.657 55.5572 283.876 56.3729 282.885 56.9364C281.899 57.4953 280.79 57.7748 279.559 57.7748C278.318 57.7748 277.205 57.493 276.219 56.9296C275.233 56.3661 274.453 55.5504 273.881 54.4825C273.308 53.4146 273.022 52.1218 273.022 50.6041C273.022 49.0818 273.308 47.7867 273.881 46.7188C274.453 45.6509 275.233 44.8375 276.219 44.2786C277.205 43.7151 278.318 43.4333 279.559 43.4333C280.79 43.4333 281.899 43.7151 282.885 44.2786C283.876 44.8375 284.657 45.6509 285.23 46.7188C285.807 47.7867 286.096 49.0818 286.096 50.6041ZM283.103 50.6041C283.103 49.618 282.955 48.7864 282.66 48.1093C282.369 47.4322 281.958 46.9187 281.426 46.5688C280.895 46.2189 280.272 46.044 279.559 46.044C278.845 46.044 278.223 46.2189 277.691 46.5688C277.159 46.9187 276.746 47.4322 276.45 48.1093C276.16 48.7864 276.014 49.618 276.014 50.6041C276.014 51.5901 276.16 52.4217 276.45 53.0988C276.746 53.7759 277.159 54.2894 277.691 54.6393C278.223 54.9892 278.845 55.1641 279.559 55.1641C280.272 55.1641 280.895 54.9892 281.426 54.6393C281.958 54.2894 282.369 53.7759 282.66 53.0988C282.955 52.4217 283.103 51.5901 283.103 50.6041Z" fill="white"/>
<path d="M296.904 43.6242H299.856V52.6898C299.856 53.7077 299.613 54.5984 299.127 55.3618C298.645 56.1252 297.97 56.7205 297.102 57.1477C296.234 57.5703 295.223 57.7816 294.069 57.7816C292.91 57.7816 291.897 57.5703 291.029 57.1477C290.161 56.7205 289.486 56.1252 289.004 55.3618C288.523 54.5984 288.282 53.7077 288.282 52.6898V43.6242H291.233V52.4376C291.233 52.9693 291.349 53.4419 291.581 53.8554C291.817 54.2689 292.149 54.5938 292.576 54.8301C293.003 55.0664 293.501 55.1846 294.069 55.1846C294.641 55.1846 295.139 55.0664 295.562 54.8301C295.989 54.5938 296.318 54.2689 296.55 53.8554C296.786 53.4419 296.904 52.9693 296.904 52.4376V43.6242Z" fill="white"/>
<path d="M302.284 57.5839V43.6242H307.792C308.846 43.6242 309.746 43.8128 310.491 44.1899C311.241 44.5626 311.811 45.092 312.202 45.7781C312.597 46.4598 312.795 47.2618 312.795 48.1843C312.795 49.1113 312.595 49.9088 312.195 50.5768C311.795 51.2402 311.216 51.7492 310.457 52.1036C309.703 52.4581 308.789 52.6353 307.717 52.6353H304.029V50.2632H307.24C307.803 50.2632 308.271 50.186 308.644 50.0315C309.016 49.877 309.294 49.6452 309.475 49.3362C309.662 49.0272 309.755 48.6432 309.755 48.1843C309.755 47.7208 309.662 47.33 309.475 47.0119C309.294 46.6938 309.014 46.4529 308.637 46.2894C308.264 46.1212 307.794 46.0372 307.226 46.0372H305.236V57.5839H302.284ZM309.823 51.2312L313.292 57.5839H310.034L306.64 51.2312H309.823Z" fill="white"/>
<path d="M322.275 43.6242V57.5839H319.323V43.6242H322.275Z" fill="white"/>
<path d="M336.379 43.6242V57.5839H333.83L327.757 48.7977H327.654V57.5839H324.703V43.6242H327.293L333.319 52.4036H333.441V43.6242H336.379Z" fill="white"/>
<path d="M343.766 57.5839H338.818V43.6242H343.807C345.211 43.6242 346.42 43.9037 347.433 44.4626C348.447 45.017 349.226 45.8145 349.771 46.8551C350.321 47.8957 350.596 49.1408 350.596 50.5904C350.596 52.0446 350.321 53.2942 349.771 54.3394C349.226 55.3845 348.442 56.1866 347.42 56.7455C346.402 57.3045 345.184 57.5839 343.766 57.5839ZM341.769 55.0551H343.644C344.516 55.0551 345.25 54.9006 345.845 54.5916C346.445 54.278 346.895 53.7941 347.195 53.1397C347.499 52.4808 347.652 51.631 347.652 50.5904C347.652 49.5589 347.499 48.7159 347.195 48.0616C346.895 47.4072 346.447 46.9255 345.852 46.6165C345.257 46.3075 344.523 46.153 343.65 46.153H341.769V55.0551Z" fill="white"/>
<path d="M361.405 43.6242H364.357V52.6898C364.357 53.7077 364.113 54.5984 363.627 55.3618C363.146 56.1252 362.471 56.7205 361.603 57.1477C360.735 57.5703 359.724 57.7816 358.57 57.7816C357.411 57.7816 356.397 57.5703 355.53 57.1477C354.662 56.7205 353.987 56.1252 353.505 55.3618C353.023 54.5984 352.783 53.7077 352.783 52.6898V43.6242H355.734V52.4376C355.734 52.9693 355.85 53.4419 356.082 53.8554C356.318 54.2689 356.65 54.5938 357.077 54.8301C357.504 55.0664 358.002 55.1846 358.57 55.1846C359.142 55.1846 359.64 55.0664 360.062 54.8301C360.489 54.5938 360.819 54.2689 361.051 53.8554C361.287 53.4419 361.405 52.9693 361.405 52.4376V43.6242Z" fill="white"/>
<path d="M374.358 47.639C374.303 47.0891 374.069 46.662 373.656 46.3575C373.242 46.0531 372.681 45.9008 371.972 45.9008C371.49 45.9008 371.084 45.969 370.752 46.1053C370.42 46.2371 370.166 46.4211 369.989 46.6574C369.816 46.8937 369.729 47.1618 369.729 47.4618C369.72 47.7117 369.773 47.9298 369.886 48.1161C370.004 48.3024 370.166 48.4637 370.37 48.6001C370.575 48.7319 370.811 48.8477 371.079 48.9477C371.347 49.0431 371.634 49.1249 371.938 49.1931L373.192 49.493C373.801 49.6293 374.36 49.8111 374.869 50.0383C375.378 50.2655 375.819 50.545 376.191 50.8767C376.564 51.2084 376.853 51.5992 377.057 52.0491C377.266 52.499 377.373 53.0147 377.377 53.5964C377.373 54.4507 377.155 55.1914 376.723 55.8185C376.296 56.4411 375.678 56.925 374.869 57.2704C374.065 57.6112 373.094 57.7816 371.958 57.7816C370.831 57.7816 369.85 57.6089 369.014 57.2636C368.182 56.9182 367.532 56.407 367.064 55.7299C366.601 55.0483 366.358 54.2053 366.335 53.2011H369.191C369.223 53.6691 369.357 54.0599 369.593 54.3735C369.834 54.6825 370.154 54.9165 370.554 55.0755C370.959 55.23 371.415 55.3073 371.924 55.3073C372.424 55.3073 372.858 55.2346 373.226 55.0892C373.599 54.9438 373.887 54.7415 374.092 54.4825C374.296 54.2235 374.399 53.9259 374.399 53.5896C374.399 53.276 374.305 53.0125 374.119 52.7989C373.937 52.5853 373.669 52.4036 373.315 52.2536C372.965 52.1036 372.536 51.9673 372.027 51.8446L370.507 51.4629C369.33 51.1766 368.4 50.729 367.719 50.1201C367.037 49.5112 366.699 48.691 366.703 47.6594C366.699 46.8142 366.923 46.0758 367.378 45.4441C367.837 44.8125 368.466 44.3195 369.266 43.965C370.066 43.6106 370.975 43.4333 371.992 43.4333C373.029 43.4333 373.933 43.6106 374.705 43.965C375.482 44.3195 376.087 44.8125 376.518 45.4441C376.95 46.0758 377.173 46.8074 377.187 47.639H374.358Z" fill="white"/>
<path d="M378.831 46.0576V43.6242H390.296V46.0576H386.022V57.5839H383.105V46.0576H378.831Z" fill="white"/>
<path d="M392.184 57.5839V43.6242H397.692C398.746 43.6242 399.646 43.8128 400.391 44.1899C401.141 44.5626 401.711 45.092 402.102 45.7781C402.497 46.4598 402.695 47.2618 402.695 48.1843C402.695 49.1113 402.495 49.9088 402.095 50.5768C401.695 51.2402 401.116 51.7492 400.357 52.1036C399.602 52.4581 398.689 52.6353 397.617 52.6353H393.929V50.2632H397.139C397.703 50.2632 398.171 50.186 398.544 50.0315C398.916 49.877 399.193 49.6452 399.375 49.3362C399.561 49.0272 399.655 48.6432 399.655 48.1843C399.655 47.7208 399.561 47.33 399.375 47.0119C399.193 46.6938 398.914 46.4529 398.537 46.2894C398.164 46.1212 397.694 46.0372 397.126 46.0372H395.135V57.5839H392.184ZM399.723 51.2312L403.192 57.5839H399.934L396.54 51.2312H399.723Z" fill="white"/>
<path d="M403.381 43.6242H406.687L409.871 49.6361H410.007L413.19 43.6242H416.496L411.404 52.6489V57.5839H408.473V52.6489L403.381 43.6242Z" fill="white"/>
<path d="M293.296 79.3378V65.3781H302.703V67.8115H296.247V71.1379H302.219V73.5713H296.247V76.9044H302.73V79.3378H293.296Z" fill="white"/>
<path d="M307.816 65.3781L310.632 70.1359H310.741L313.569 65.3781H316.903L312.642 72.358L316.998 79.3378H313.603L310.741 74.5733H310.632L307.769 79.3378H304.388L308.757 72.358L304.47 65.3781H307.816Z" fill="white"/>
<path d="M318.77 79.3378V65.3781H324.278C325.337 65.3781 326.239 65.5803 326.984 65.9848C327.729 66.3846 328.297 66.9413 328.688 67.6547C329.083 68.3636 329.281 69.1816 329.281 70.1086C329.281 71.0356 329.081 71.8536 328.681 72.5625C328.281 73.2714 327.702 73.8235 326.943 74.2188C326.189 74.6142 325.275 74.8118 324.203 74.8118H320.692V72.4466H323.726C324.294 72.4466 324.762 72.3489 325.13 72.1535C325.502 71.9535 325.78 71.6786 325.961 71.3287C326.148 70.9743 326.241 70.5676 326.241 70.1086C326.241 69.6451 326.148 69.2407 325.961 68.8953C325.78 68.5454 325.502 68.275 325.13 68.0842C324.757 67.8888 324.285 67.7911 323.712 67.7911H321.722V79.3378H318.77Z" fill="white"/>
<path d="M331.198 79.3378V65.3781H340.604V67.8115H334.149V71.1379H340.12V73.5713H334.149V76.9044H340.632V79.3378H331.198Z" fill="white"/>
<path d="M342.951 79.3378V65.3781H348.458C349.513 65.3781 350.412 65.5667 351.158 65.9439C351.908 66.3165 352.478 66.8459 352.869 67.532C353.264 68.2137 353.462 69.0157 353.462 69.9382C353.462 70.8652 353.262 71.6627 352.862 72.3307C352.462 72.9942 351.883 73.5031 351.124 73.8576C350.369 74.212 349.456 74.3892 348.383 74.3892H344.696V72.0172H347.906C348.47 72.0172 348.938 71.9399 349.311 71.7854C349.683 71.6309 349.96 71.3991 350.142 71.0901C350.328 70.7811 350.422 70.3972 350.422 69.9382C350.422 69.4747 350.328 69.0839 350.142 68.7658C349.96 68.4477 349.681 68.2069 349.304 68.0433C348.931 67.8751 348.461 67.7911 347.893 67.7911H345.902V79.3378H342.951ZM350.49 72.9851L353.959 79.3378H350.701L347.307 72.9851H350.49Z" fill="white"/>
<path d="M355.016 67.8115V65.3781H366.481V67.8115H362.207V79.3378H359.29V67.8115H355.016Z" fill="white"/>
<path d="M371.32 65.3781V79.3378H368.369V65.3781H371.32Z" fill="white"/>
<path d="M381.321 69.3929C381.267 68.843 381.033 68.4159 380.619 68.1114C380.206 67.807 379.645 67.6547 378.936 67.6547C378.454 67.6547 378.047 67.7229 377.716 67.8592C377.384 67.991 377.129 68.1751 376.952 68.4113C376.78 68.6476 376.693 68.9158 376.693 69.2157C376.684 69.4656 376.736 69.6837 376.85 69.87C376.968 70.0563 377.129 70.2177 377.334 70.354C377.538 70.4858 377.775 70.6016 378.043 70.7016C378.311 70.797 378.597 70.8788 378.902 70.947L380.156 71.2469C380.765 71.3832 381.324 71.565 381.833 71.7922C382.342 72.0194 382.782 72.2989 383.155 72.6306C383.528 72.9623 383.816 73.3531 384.021 73.803C384.23 74.2529 384.336 74.7687 384.341 75.3503C384.336 76.2046 384.118 76.9453 383.687 77.5724C383.26 78.195 382.642 78.6789 381.833 79.0243C381.028 79.3651 380.058 79.5355 378.922 79.5355C377.795 79.5355 376.814 79.3628 375.977 79.0175C375.146 78.6721 374.496 78.1609 374.028 77.4838C373.565 76.8022 373.321 75.9592 373.299 74.955H376.155C376.187 75.423 376.321 75.8138 376.557 76.1274C376.798 76.4364 377.118 76.6704 377.518 76.8294C377.922 76.9839 378.379 77.0612 378.888 77.0612C379.388 77.0612 379.822 76.9885 380.19 76.8431C380.563 76.6977 380.851 76.4954 381.056 76.2364C381.26 75.9774 381.362 75.6798 381.362 75.3435C381.362 75.0299 381.269 74.7664 381.083 74.5528C380.901 74.3392 380.633 74.1575 380.279 74.0075C379.929 73.8576 379.499 73.7212 378.99 73.5985L377.47 73.2168C376.293 72.9305 375.364 72.4829 374.682 71.874C374.001 71.2651 373.662 70.4449 373.667 69.4133C373.662 68.5681 373.887 67.8297 374.342 67.198C374.801 66.5664 375.43 66.0734 376.23 65.7189C377.029 65.3645 377.938 65.1873 378.956 65.1873C379.992 65.1873 380.897 65.3645 381.669 65.7189C382.446 66.0734 383.05 66.5664 383.482 67.198C383.914 67.8297 384.137 68.5613 384.15 69.3929H381.321Z" fill="white"/>
<path d="M386.326 79.3378V65.3781H395.733V67.8115H389.278V71.1379H395.249V73.5713H389.278V76.9044H395.76V79.3378H386.326Z" fill="white"/>
<path d="M567.229 56.3043H564.066L568.885 42.3445H572.689L577.501 56.3043H574.338L570.841 45.5346H570.732L567.229 56.3043ZM567.031 50.8172H574.502V53.1211H567.031V50.8172Z" fill="white"/>
<path d="M582.133 42.3445V56.3043H579.181V42.3445H582.133Z" fill="white"/>
<path d="M590.586 41.6902L586.088 58.4037H583.586L588.085 41.6902H590.586Z" fill="white"/>
<path d="M592.04 42.3445H595.68L599.524 51.7237H599.688L603.532 42.3445H607.172V56.3043H604.309V47.2182H604.193L600.581 56.2361H598.631L595.019 47.1841H594.903V56.3043H592.04V42.3445Z" fill="white"/>
<path d="M609.604 56.3043V42.3445H612.555V53.8709H618.54V56.3043H609.604Z" fill="white"/>
<path d="M547.589 68.9857H544.603C544.548 68.5995 544.437 68.2564 544.269 67.9565C544.101 67.652 543.885 67.393 543.621 67.1794C543.358 66.9658 543.053 66.8022 542.708 66.6886C542.367 66.575 541.997 66.5182 541.597 66.5182C540.874 66.5182 540.245 66.6977 539.709 67.0567C539.173 67.4112 538.757 67.9292 538.462 68.6108C538.166 69.2879 538.018 70.1104 538.018 71.0783C538.018 72.0735 538.166 72.9096 538.462 73.5867C538.761 74.2638 539.179 74.775 539.716 75.1204C540.252 75.4657 540.872 75.6384 541.577 75.6384C541.972 75.6384 542.338 75.5862 542.674 75.4816C543.015 75.3771 543.317 75.2249 543.581 75.025C543.844 74.8205 544.062 74.5728 544.235 74.282C544.412 73.9911 544.535 73.6594 544.603 73.2868L547.589 73.3004C547.511 73.9412 547.318 74.5592 547.009 75.1545C546.705 75.7452 546.293 76.2746 545.775 76.7427C545.262 77.2062 544.648 77.5742 543.935 77.8469C543.226 78.115 542.424 78.2491 541.529 78.2491C540.284 78.2491 539.17 77.9673 538.189 77.4038C537.212 76.8404 536.439 76.0247 535.871 74.9568C535.308 73.8889 535.026 72.5961 535.026 71.0783C535.026 69.556 535.312 68.2609 535.885 67.1931C536.458 66.1252 537.235 65.3118 538.216 64.7528C539.198 64.1893 540.302 63.9076 541.529 63.9076C542.338 63.9076 543.087 64.0212 543.778 64.2484C544.473 64.4756 545.089 64.8074 545.625 65.2436C546.162 65.6753 546.598 66.2047 546.934 66.8318C547.275 67.4589 547.493 68.1769 547.589 68.9857Z" fill="white"/>
<path d="M551.849 78.0582H548.686L553.505 64.0985H557.309L562.121 78.0582H558.958L555.461 67.2885H555.352L551.849 78.0582ZM551.651 72.5711H559.122V74.875H551.651V72.5711Z" fill="white"/>
<path d="M563.801 78.0582V64.0985H569.309C570.367 64.0985 571.269 64.3007 572.015 64.7051C572.76 65.105 573.328 65.6617 573.719 66.3751C574.114 67.084 574.312 67.9019 574.312 68.829C574.312 69.756 574.112 70.5739 573.712 71.2828C573.312 71.9917 572.733 72.5438 571.974 72.9392C571.219 73.3345 570.306 73.5322 569.234 73.5322H565.723V71.1669H568.756C569.324 71.1669 569.792 71.0692 570.161 70.8738C570.533 70.6739 570.81 70.399 570.992 70.0491C571.178 69.6946 571.272 69.2879 571.272 68.829C571.272 68.3654 571.178 67.961 570.992 67.6157C570.81 67.2658 570.533 66.9954 570.161 66.8045C569.788 66.6091 569.315 66.5114 568.743 66.5114H566.752V78.0582H563.801Z" fill="white"/>
<path d="M577.023 78.0582H573.86L578.679 64.0985H582.483L587.295 78.0582H584.132L580.635 67.2885H580.526L577.023 78.0582ZM576.825 72.5711H584.296V74.875H576.825V72.5711Z" fill="white"/>
<path d="M588.975 78.0582V64.0985H594.565C595.592 64.0985 596.448 64.2507 597.134 64.5552C597.82 64.8596 598.336 65.2822 598.682 65.823C599.027 66.3592 599.2 66.9772 599.2 67.677C599.2 68.2223 599.091 68.7017 598.872 69.1152C598.654 69.5242 598.354 69.8605 597.973 70.1241C597.596 70.3831 597.164 70.5671 596.678 70.6762V70.8125C597.209 70.8352 597.707 70.9852 598.17 71.2624C598.638 71.5396 599.018 71.9281 599.309 72.4279C599.599 72.9233 599.745 73.514 599.745 74.2002C599.745 74.9409 599.561 75.6021 599.193 76.1837C598.829 76.7608 598.291 77.2175 597.577 77.5538C596.864 77.8901 595.985 78.0582 594.939 78.0582H588.975ZM591.927 75.6452H594.333C595.155 75.6452 595.755 75.4885 596.132 75.1749C596.509 74.8568 596.698 74.4342 596.698 73.9071C596.698 73.5208 596.605 73.18 596.419 72.8846C596.232 72.5893 595.966 72.3575 595.621 72.1894C595.28 72.0212 594.874 71.9372 594.401 71.9372H591.927V75.6452ZM591.927 69.94H594.115C594.519 69.94 594.878 69.8696 595.192 69.7287C595.51 69.5833 595.76 69.3788 595.941 69.1152C596.128 68.8517 596.221 68.5359 596.221 68.1678C596.221 67.6634 596.041 67.2567 595.682 66.9477C595.328 66.6387 594.824 66.4842 594.169 66.4842H591.927V69.94Z" fill="white"/>
<path d="M604.617 64.0985V78.0582H601.665V64.0985H604.617Z" fill="white"/>
<path d="M607.045 78.0582V64.0985H609.997V75.6248H615.981V78.0582H607.045Z" fill="white"/>
<path d="M620.887 64.0985V78.0582H617.936V64.0985H620.887Z" fill="white"/>
<path d="M622.784 66.5319V64.0985H634.249V66.5319H629.975V78.0582H627.058V66.5319H622.784Z" fill="white"/>
<path d="M635.319 64.0985H638.625L641.808 70.1104H641.944L645.128 64.0985H648.434L643.342 73.1232V78.0582H640.411V73.1232L635.319 64.0985Z" fill="white"/>
<path d="M782.42 51.9419V65.9016H779.468V51.9419H782.42Z" fill="white"/>
<path d="M796.524 51.9419V65.9016H793.975L787.902 57.1154H787.799V65.9016H784.848V51.9419H787.438L793.464 60.7212H793.586V51.9419H796.524Z" fill="white"/>
<path d="M810.639 51.9419V65.9016H808.09L802.016 57.1154H801.914V65.9016H798.963V51.9419H801.553L807.578 60.7212H807.701V51.9419H810.639Z" fill="white"/>
<path d="M825.906 58.9217C825.906 60.444 825.617 61.7391 825.04 62.807C824.467 63.8749 823.686 64.6906 822.695 65.254C821.709 65.813 820.6 66.0925 819.369 66.0925C818.128 66.0925 817.015 65.8107 816.029 65.2472C815.043 64.6838 814.264 63.8681 813.691 62.8002C813.118 61.7323 812.832 60.4395 812.832 58.9217C812.832 57.3994 813.118 56.1043 813.691 55.0365C814.264 53.9686 815.043 53.1552 816.029 52.5962C817.015 52.0327 818.128 51.751 819.369 51.751C820.6 51.751 821.709 52.0327 822.695 52.5962C823.686 53.1552 824.467 53.9686 825.04 55.0365C825.617 56.1043 825.906 57.3994 825.906 58.9217ZM822.913 58.9217C822.913 57.9356 822.766 57.1041 822.47 56.427C822.18 55.7499 821.768 55.2364 821.237 54.8865C820.705 54.5366 820.082 54.3616 819.369 54.3616C818.655 54.3616 818.033 54.5366 817.501 54.8865C816.97 55.2364 816.556 55.7499 816.261 56.427C815.97 57.1041 815.825 57.9356 815.825 58.9217C815.825 59.9078 815.97 60.7394 816.261 61.4165C816.556 62.0936 816.97 62.6071 817.501 62.957C818.033 63.3069 818.655 63.4818 819.369 63.4818C820.082 63.4818 820.705 63.3069 821.237 62.957C821.768 62.6071 822.18 62.0936 822.47 61.4165C822.766 60.7394 822.913 59.9078 822.913 58.9217Z" fill="white"/>
<path d="M829.827 51.9419L833.201 62.548H833.33L836.711 51.9419H839.983L835.171 65.9016H831.367L826.548 51.9419H829.827Z" fill="white"/>
<path d="M842.214 65.9016H839.051L843.87 51.9419H847.673L852.486 65.9016H849.323L845.826 55.1319H845.717L842.214 65.9016ZM842.016 60.4145H849.487V62.7184H842.016V60.4145Z" fill="white"/>
<path d="M851.929 54.3753V51.9419H863.394V54.3753H859.12V65.9016H856.202V54.3753H851.929Z" fill="white"/>
<path d="M868.233 51.9419V65.9016H865.282V51.9419H868.233Z" fill="white"/>
<path d="M883.49 58.9217C883.49 60.444 883.201 61.7391 882.624 62.807C882.051 63.8749 881.27 64.6906 880.279 65.254C879.293 65.813 878.184 66.0925 876.953 66.0925C875.712 66.0925 874.599 65.8107 873.613 65.2472C872.627 64.6838 871.847 63.8681 871.275 62.8002C870.702 61.7323 870.416 60.4395 870.416 58.9217C870.416 57.3994 870.702 56.1043 871.275 55.0365C871.847 53.9686 872.627 53.1552 873.613 52.5962C874.599 52.0327 875.712 51.751 876.953 51.751C878.184 51.751 879.293 52.0327 880.279 52.5962C881.27 53.1552 882.051 53.9686 882.624 55.0365C883.201 56.1043 883.49 57.3994 883.49 58.9217ZM880.497 58.9217C880.497 57.9356 880.35 57.1041 880.054 56.427C879.763 55.7499 879.352 55.2364 878.82 54.8865C878.289 54.5366 877.666 54.3616 876.953 54.3616C876.239 54.3616 875.617 54.5366 875.085 54.8865C874.554 55.2364 874.14 55.7499 873.845 56.427C873.554 57.1041 873.408 57.9356 873.408 58.9217C873.408 59.9078 873.554 60.7394 873.845 61.4165C874.14 62.0936 874.554 62.6071 875.085 62.957C875.617 63.3069 876.239 63.4818 876.953 63.4818C877.666 63.4818 878.289 63.3069 878.82 62.957C879.352 62.6071 879.763 62.0936 880.054 61.4165C880.35 60.7394 880.497 59.9078 880.497 58.9217Z" fill="white"/>
<path d="M897.352 51.9419V65.9016H894.803L888.73 57.1154H888.627V65.9016H885.676V51.9419H888.266L894.292 60.7212H894.414V51.9419H897.352Z" fill="white"/>
<path d="M994.641 54.3753V51.9419H1006.11V54.3753H1001.83V65.9016H998.915V54.3753H994.641Z" fill="white"/>
<path d="M1007.99 65.9016V51.9419H1013.5C1014.56 51.9419 1015.46 52.1304 1016.2 52.5076C1016.95 52.8802 1017.52 53.4096 1017.91 54.0958C1018.31 54.7774 1018.5 55.5795 1018.5 56.502C1018.5 57.429 1018.3 58.2265 1017.91 58.8945C1017.51 59.5579 1016.93 60.0669 1016.17 60.4213C1015.41 60.7758 1014.5 60.953 1013.43 60.953H1009.74V58.5809H1012.95C1013.51 58.5809 1013.98 58.5037 1014.35 58.3492C1014.73 58.1947 1015 57.9629 1015.19 57.6539C1015.37 57.3449 1015.46 56.9609 1015.46 56.502C1015.46 56.0384 1015.37 55.6476 1015.19 55.3296C1015 55.0115 1014.72 54.7706 1014.35 54.607C1013.97 54.4389 1013.5 54.3548 1012.94 54.3548H1010.95V65.9016H1007.99ZM1015.53 59.5488L1019 65.9016H1015.74L1012.35 59.5488H1015.53Z" fill="white"/>
<path d="M1023 65.9016H1019.83L1024.65 51.9419H1028.46L1033.27 65.9016H1030.11L1026.61 55.1319H1026.5L1023 65.9016ZM1022.8 60.4145H1030.27V62.7184H1022.8V60.4145Z" fill="white"/>
<path d="M1046.63 51.9419V65.9016H1044.08L1038 57.1154H1037.9V65.9016H1034.95V51.9419H1037.54L1043.56 60.7212H1043.69V51.9419H1046.63Z" fill="white"/>
<path d="M1056.64 55.9566C1056.58 55.4068 1056.35 54.9796 1055.93 54.6752C1055.52 54.3707 1054.96 54.2185 1054.25 54.2185C1053.77 54.2185 1053.36 54.2867 1053.03 54.423C1052.7 54.5548 1052.44 54.7388 1052.27 54.9751C1052.09 55.2114 1052.01 55.4795 1052.01 55.7794C1052 56.0294 1052.05 56.2475 1052.17 56.4338C1052.28 56.6201 1052.44 56.7814 1052.65 56.9177C1052.85 57.0495 1053.09 57.1654 1053.36 57.2654C1053.63 57.3608 1053.91 57.4426 1054.22 57.5108L1055.47 57.8107C1056.08 57.947 1056.64 58.1288 1057.15 58.356C1057.66 58.5832 1058.1 58.8627 1058.47 59.1944C1058.84 59.5261 1059.13 59.9169 1059.34 60.3668C1059.55 60.8167 1059.65 61.3324 1059.66 61.9141C1059.65 62.7684 1059.43 63.5091 1059 64.1362C1058.57 64.7587 1057.96 65.2427 1057.15 65.588C1056.34 65.9289 1055.37 66.0993 1054.24 66.0993C1053.11 66.0993 1052.13 65.9266 1051.29 65.5812C1050.46 65.2359 1049.81 64.7247 1049.34 64.0476C1048.88 63.3659 1048.64 62.523 1048.61 61.5187H1051.47C1051.5 61.9868 1051.64 62.3776 1051.87 62.6911C1052.11 63.0001 1052.43 63.2342 1052.83 63.3932C1053.24 63.5477 1053.69 63.625 1054.2 63.625C1054.7 63.625 1055.14 63.5522 1055.51 63.4068C1055.88 63.2614 1056.17 63.0592 1056.37 62.8002C1056.58 62.5412 1056.68 62.2435 1056.68 61.9073C1056.68 61.5937 1056.58 61.3301 1056.4 61.1166C1056.22 60.903 1055.95 60.7212 1055.59 60.5713C1055.24 60.4213 1054.81 60.285 1054.31 60.1623L1052.79 59.7806C1051.61 59.4943 1050.68 59.0467 1050 58.4378C1049.32 57.8289 1048.98 57.0086 1048.98 55.9771C1048.98 55.1319 1049.2 54.3935 1049.66 53.7618C1050.12 53.1302 1050.75 52.6371 1051.55 52.2827C1052.34 51.9282 1053.25 51.751 1054.27 51.751C1055.31 51.751 1056.21 51.9282 1056.98 52.2827C1057.76 52.6371 1058.37 53.1302 1058.8 53.7618C1059.23 54.3935 1059.45 55.1251 1059.47 55.9566H1056.64Z" fill="white"/>
<path d="M1061.64 65.9016V51.9419H1070.88V54.3753H1064.59V57.7016H1070.27V60.135H1064.59V65.9016H1061.64Z" fill="white"/>
<path d="M1085.7 58.9217C1085.7 60.444 1085.41 61.7391 1084.83 62.807C1084.26 63.8749 1083.48 64.6906 1082.49 65.254C1081.5 65.813 1080.39 66.0925 1079.16 66.0925C1077.92 66.0925 1076.81 65.8107 1075.82 65.2472C1074.84 64.6838 1074.06 63.8681 1073.48 62.8002C1072.91 61.7323 1072.62 60.4395 1072.62 58.9217C1072.62 57.3994 1072.91 56.1043 1073.48 55.0365C1074.06 53.9686 1074.84 53.1552 1075.82 52.5962C1076.81 52.0327 1077.92 51.751 1079.16 51.751C1080.39 51.751 1081.5 52.0327 1082.49 52.5962C1083.48 53.1552 1084.26 53.9686 1084.83 55.0365C1085.41 56.1043 1085.7 57.3994 1085.7 58.9217ZM1082.71 58.9217C1082.71 57.9356 1082.56 57.1041 1082.26 56.427C1081.97 55.7499 1081.56 55.2364 1081.03 54.8865C1080.5 54.5366 1079.87 54.3616 1079.16 54.3616C1078.45 54.3616 1077.83 54.5366 1077.29 54.8865C1076.76 55.2364 1076.35 55.7499 1076.05 56.427C1075.76 57.1041 1075.62 57.9356 1075.62 58.9217C1075.62 59.9078 1075.76 60.7394 1076.05 61.4165C1076.35 62.0936 1076.76 62.6071 1077.29 62.957C1077.83 63.3069 1078.45 63.4818 1079.16 63.4818C1079.87 63.4818 1080.5 63.3069 1081.03 62.957C1081.56 62.6071 1081.97 62.0936 1082.26 61.4165C1082.56 60.7394 1082.71 59.9078 1082.71 58.9217Z" fill="white"/>
<path d="M1087.88 65.9016V51.9419H1093.39C1094.45 51.9419 1095.35 52.1304 1096.09 52.5076C1096.84 52.8802 1097.41 53.4096 1097.8 54.0958C1098.2 54.7774 1098.4 55.5795 1098.4 56.502C1098.4 57.429 1098.2 58.2265 1097.8 58.8945C1097.4 59.5579 1096.82 60.0669 1096.06 60.4213C1095.3 60.7758 1094.39 60.953 1093.32 60.953H1089.63V58.5809H1092.84C1093.4 58.5809 1093.87 58.5037 1094.24 58.3492C1094.62 58.1947 1094.89 57.9629 1095.08 57.6539C1095.26 57.3449 1095.36 56.9609 1095.36 56.502C1095.36 56.0384 1095.26 55.6476 1095.08 55.3296C1094.89 55.0115 1094.61 54.7706 1094.24 54.607C1093.86 54.4389 1093.39 54.3548 1092.83 54.3548H1090.84V65.9016H1087.88ZM1095.42 59.5488L1098.89 65.9016H1095.63L1092.24 59.5488H1095.42Z" fill="white"/>
<path d="M1100.48 51.9419H1104.12L1107.97 61.3211H1108.13L1111.97 51.9419H1115.61V65.9016H1112.75V56.8155H1112.63L1109.02 65.8334H1107.07L1103.46 56.7814H1103.34V65.9016H1100.48V51.9419Z" fill="white"/>
<path d="M1120.45 65.9016H1117.29L1122.11 51.9419H1125.91L1130.72 65.9016H1127.56L1124.06 55.1319H1123.95L1120.45 65.9016ZM1120.25 60.4145H1127.72V62.7184H1120.25V60.4145Z" fill="white"/>
<path d="M1130.17 54.3753V51.9419H1141.63V54.3753H1137.36V65.9016H1134.44V54.3753H1130.17Z" fill="white"/>
<path d="M1146.47 51.9419V65.9016H1143.52V51.9419H1146.47Z" fill="white"/>
<path d="M1161.73 58.9217C1161.73 60.444 1161.44 61.7391 1160.86 62.807C1160.29 63.8749 1159.51 64.6906 1158.52 65.254C1157.53 65.813 1156.42 66.0925 1155.19 66.0925C1153.95 66.0925 1152.84 65.8107 1151.85 65.2472C1150.86 64.6838 1150.08 63.8681 1149.51 62.8002C1148.94 61.7323 1148.65 60.4395 1148.65 58.9217C1148.65 57.3994 1148.94 56.1043 1149.51 55.0365C1150.08 53.9686 1150.86 53.1552 1151.85 52.5962C1152.84 52.0327 1153.95 51.751 1155.19 51.751C1156.42 51.751 1157.53 52.0327 1158.52 52.5962C1159.51 53.1552 1160.29 53.9686 1160.86 55.0365C1161.44 56.1043 1161.73 57.3994 1161.73 58.9217ZM1158.73 58.9217C1158.73 57.9356 1158.59 57.1041 1158.29 56.427C1158 55.7499 1157.59 55.2364 1157.06 54.8865C1156.53 54.5366 1155.9 54.3616 1155.19 54.3616C1154.48 54.3616 1153.85 54.5366 1153.32 54.8865C1152.79 55.2364 1152.38 55.7499 1152.08 56.427C1151.79 57.1041 1151.65 57.9356 1151.65 58.9217C1151.65 59.9078 1151.79 60.7394 1152.08 61.4165C1152.38 62.0936 1152.79 62.6071 1153.32 62.957C1153.85 63.3069 1154.48 63.4818 1155.19 63.4818C1155.9 63.4818 1156.53 63.3069 1157.06 62.957C1157.59 62.6071 1158 62.0936 1158.29 61.4165C1158.59 60.7394 1158.73 59.9078 1158.73 58.9217Z" fill="white"/>
<path d="M1175.59 51.9419V65.9016H1173.04L1166.97 57.1154H1166.86V65.9016H1163.91V51.9419H1166.5L1172.53 60.7212H1172.65V51.9419H1175.59Z" fill="white"/>
<path d="M213.144 80.5884V82.5884H215.144H225.555H227.555V80.5884V67.2036H240.94H242.94V65.2036V54.792V52.792H240.94H227.555V39.4072V37.4072H225.555H215.144H213.144V39.4072V52.792H199.759H197.759V54.792V65.2036V67.2036H199.759H213.144V80.5884ZM462.034 80.5884V82.5884H464.034H474.446H476.446V80.5884V67.2036H489.83H491.83V65.2036V54.792V52.792H489.83H476.446V39.4072V37.4072H474.446H464.034H462.034V39.4072V52.792H448.649H446.649V54.792V65.2036V67.2036H448.649H462.034V80.5884ZM694.754 55.49V57.49H696.754H736.917H738.917V55.49V45.1656V43.1656H736.917H696.754H694.754V45.1656V55.49ZM694.754 74.801V76.801H696.754H736.917H738.917V74.801V64.4766V62.4766H736.917H696.754H694.754V64.4766V74.801ZM955.976 80.5884V82.5884H957.976H968.387H970.387V80.5884V67.2036H983.772H985.772V65.2036V54.792V52.792H983.772H970.387V39.4072V37.4072H968.387H957.976H955.976V39.4072V52.792H942.591H940.591V54.792V65.2036V67.2036H942.591H955.976V80.5884Z" fill="#184376" stroke="white" stroke-width="4"/>
</svg>
