<svg width="151" height="99" viewBox="0 0 151 99" fill="none"
  xmlns="http://www.w3.org/2000/svg">
  <path d="M25.2301 25.27H22.0801V28.42H25.2301V25.27Z" fill="#184376"/>
  <path d="M22.0797 37.89H18.9297V41.04H22.0797V37.89Z" fill="#184376"/>
  <path d="M28.3902 44.2H25.2402V47.35H28.3902V44.2Z" fill="#184376"/>
  <path d="M28.3902 31.58H25.2402V34.73H28.3902V31.58Z" fill="#184376"/>
  <path d="M28.3902 6.34H25.2402V9.49H28.3902V6.34Z" fill="#184376"/>
  <path d="M31.5396 50.51H28.3896V53.66H31.5396V50.51Z" fill="#184376"/>
  <path d="M6.30039 41.05H3.15039V44.2H6.30039V41.05Z" fill="#184376"/>
  <path d="M31.5396 22.12H28.3896V25.27H31.5396V22.12Z" fill="#184376"/>
  <path d="M31.5396 12.65H28.3896V15.8H31.5396V12.65Z" fill="#184376"/>
  <path d="M31.5396 0.0299988H28.3896V3.18H31.5396V0.0299988Z" fill="#184376"/>
  <path d="M3.15 12.65H0V15.8H3.15V12.65Z" fill="#184376"/>
  <path d="M34.6998 31.58H31.5498V34.73H34.6998V31.58Z" fill="#184376"/>
  <path d="M34.6998 25.27H31.5498V28.42H34.6998V25.27Z" fill="#184376"/>
  <path d="M18.9195 18.96H15.7695V22.11H18.9195V18.96Z" fill="#184376"/>
  <path d="M34.6998 3.19H31.5498V6.34H34.6998V3.19Z" fill="#184376"/>
  <path d="M37.8502 47.36H34.7002V50.51H37.8502V47.36Z" fill="#184376"/>
  <path d="M41.0103 44.2H37.8604V47.35H41.0103V44.2Z" fill="#184376"/>
  <path d="M37.8502 34.74H34.7002V41.05H37.8502V34.74Z" fill="#184376"/>
  <path d="M37.8502 15.81H34.7002V18.96H37.8502V15.81Z" fill="#184376"/>
  <path d="M15.7701 3.19H12.6201V6.34H15.7701V3.19Z" fill="#184376"/>
  <path d="M41.0103 50.51H37.8604V53.66H41.0103V50.51Z" fill="#184376"/>
  <path d="M41.0103 28.43H37.8604V31.58H41.0103V28.43Z" fill="#184376"/>
  <path d="M41.0103 22.12H37.8604V25.27H41.0103V22.12Z" fill="#184376"/>
  <path d="M41.0103 9.5H37.8604V12.65H41.0103V9.5Z" fill="#184376"/>
  <path d="M41.0103 3.19H37.8604V6.34H41.0103V3.19Z" fill="#184376"/>
  <path d="M44.1598 41.05H41.0098V44.2H44.1598V41.05Z" fill="#184376"/>
  <path d="M44.1598 34.74H41.0098V37.89H44.1598V34.74Z" fill="#184376"/>
  <path d="M12.61 31.58H9.45996V34.73H12.61V31.58Z" fill="#184376"/>
  <path d="M44.1598 12.65H41.0098V18.96H44.1598V12.65Z" fill="#184376"/>
  <path d="M47.3199 37.89H44.1699V41.04H47.3199V37.89Z" fill="#184376"/>
  <path d="M47.3198 0.0299988H41.0098V3.19H44.1698V6.34H47.3198V0.0299988Z" fill="#184376"/>
  <path d="M47.3199 37.89H50.4799V34.74H53.6299V31.58H47.3199V28.43H44.1699V34.74H47.3199V37.89Z" fill="#184376"/>
  <path d="M53.6299 12.65V9.5H50.4799V6.34H47.3199V9.5H44.1699V12.65H47.3199V15.81H50.4799V12.65H53.6299Z" fill="#184376"/>
  <path d="M59.9405 41.05H50.4805V44.2H59.9405V41.05Z" fill="#184376"/>
  <path d="M56.7799 34.74H53.6299V37.89H56.7799V34.74Z" fill="#184376"/>
  <path d="M56.7799 25.27H53.6299V28.42H56.7799V25.27Z" fill="#184376"/>
  <path d="M56.7899 6.34H59.9399V0.0299988H56.7899V3.19H53.6299V9.5H56.7899V6.34Z" fill="#184376"/>
  <path d="M53.6305 0.0299988H50.4805V3.18H53.6305V0.0299988Z" fill="#184376"/>
  <path d="M50.4803 47.36V50.51H47.3203V53.67H53.6303V50.51H56.7903V47.36H50.4803Z" fill="#184376"/>
  <path d="M63.1 50.51V47.36H59.94V50.51H56.79V53.67H69.41V50.51H63.1Z" fill="#184376"/>
  <path d="M63.0904 6.34H59.9404V9.49H63.0904V6.34Z" fill="#184376"/>
  <path d="M66.2496 0.0299988H63.0996V3.18H66.2496V0.0299988Z" fill="#184376"/>
  <path d="M50.4799 47.36V44.2H44.1699V50.51H47.3199V47.36H50.4799Z" fill="#184376"/>
  <path d="M66.2496 44.2H63.0996V47.35H66.2496V44.2Z" fill="#184376"/>
  <path d="M92.4696 53.67L93.0396 53.04L108.13 35.99L98.6596 22.7L122.27 0.0399988H100.08H94.6396V3.19H91.4896V0.0299988H72.5596V3.18H69.4096V6.33H72.5596V9.5H69.4096V6.34H66.2596V9.5H63.0996V12.65H66.2496V15.8H69.3996V12.65H72.5496V15.8H75.6996V18.95H72.5496V15.8H69.3996V18.95H66.2496V15.8H59.9396V18.95H63.0896V22.1H66.2396V25.25H63.0996V22.1H59.9496V18.95H56.7996V15.8H59.9496V9.5H56.7996V12.65H53.6496V15.8H50.4996V18.95H47.3496V25.26H50.4996V22.11H56.8096V25.26H59.9596V28.41H63.1096V31.56H59.9596V28.41H56.8096V34.72H59.9596V41.03H66.2696V37.88H63.0996V34.73H66.2496V37.88H72.5596V31.57H75.7096V37.88H72.5596V41.03H75.7096V44.18H72.5596V41.03H69.4096V50.49H72.5596V53.64H85.1796V47.33H88.3296V53.64H90.6196H92.4696V53.67ZM82.0296 25.27H85.1796V18.96H88.3296V25.27H85.1796V31.58H82.0296V25.27ZM85.1796 12.65H88.3296V15.8H85.1796V12.65ZM88.3396 28.43H91.4896V25.28H94.6396V28.43H91.4896V31.58H88.3396V28.43ZM94.6496 41.05V37.9V41.05ZM88.3396 37.89H91.4896V41.04H88.3396V37.89ZM94.6496 6.34V9.5H91.4996V6.34H94.6496ZM75.7196 6.34H82.0296V9.5H75.7196V6.34ZM78.8696 12.65H82.0196V15.8H78.8696V12.65ZM72.5596 25.27V28.42H69.4096V31.57H66.2596V28.42H69.4096V22.11H75.7196V25.26H78.8696V28.41H75.7196V25.26H72.5596V25.27ZM78.8696 34.74H82.0196V37.89H78.8696V34.74ZM78.8696 47.36V50.51H75.7196V47.36H78.8696V41.05H82.0196V47.36H78.8696Z" fill="#184376"/>
  <path d="M124.36 0.15L140.64 0L140.67 15.42L108.21 15.45L124.36 0.15Z" fill="url(#paint0_linear_52_16)"/>
  <path d="M109.69 36.75L129.13 36.6L129.11 53.67H94.3896L109.69 36.75Z" fill="url(#paint1_linear_52_16)"/>
  <path d="M106.85 17.09H150.13V35.11H109.62L100.9 22.78L106.85 17.09Z" fill="#F37530"/>
  <path d="M70.3001 87.3H67.7701V70.92L62.4901 82.06H60.9801L55.7301 70.92V87.3H53.3701V68.29H56.8201L61.8901 78.87L66.7901 68.29H70.3001V87.3Z" fill="#184376"/>
  <path d="M85.7999 80.17C85.7999 82.49 85.1999 84.33 84.0099 85.67C82.8199 87.01 81.2199 87.69 79.2199 87.69C77.1999 87.69 75.5999 87.02 74.4099 85.67C73.2199 84.33 72.6299 82.49 72.6299 80.17C72.6299 77.85 73.2199 76.01 74.4099 74.66C75.5999 73.31 77.1999 72.64 79.2199 72.64C81.2199 72.64 82.8199 73.31 84.0099 74.66C85.1999 76.01 85.7999 77.85 85.7999 80.17ZM83.3199 80.17C83.3199 78.32 82.9599 76.95 82.2399 76.05C81.5199 75.15 80.5099 74.7 79.2299 74.7C77.9299 74.7 76.9199 75.15 76.1999 76.05C75.4799 76.95 75.1199 78.32 75.1199 80.17C75.1199 81.96 75.4799 83.31 76.2099 84.24C76.9299 85.16 77.9399 85.63 79.2299 85.63C80.5099 85.63 81.5099 85.17 82.2399 84.26C82.9599 83.34 83.3199 81.98 83.3199 80.17Z" fill="#184376"/>
  <path d="M100.89 87.3H97.72L92 81.05L90.44 82.53V87.29H88.04V67.44H90.44V80.18L97.37 73.04H100.4L93.78 79.63L100.89 87.3Z" fill="#184376"/>
  <path d="M112.03 83.19C112.03 84.49 111.49 85.56 110.42 86.39C109.34 87.22 107.87 87.64 106.01 87.64C104.95 87.64 103.99 87.51 103.11 87.26C102.23 87.01 101.49 86.73 100.9 86.44V83.75H101.03C101.79 84.32 102.63 84.77 103.56 85.11C104.49 85.45 105.38 85.61 106.23 85.61C107.29 85.61 108.11 85.44 108.71 85.1C109.31 84.76 109.6 84.22 109.6 83.49C109.6 82.93 109.44 82.5 109.12 82.21C108.8 81.92 108.18 81.67 107.26 81.47C106.92 81.39 106.47 81.3 105.93 81.2C105.38 81.1 104.88 80.99 104.43 80.87C103.18 80.54 102.29 80.05 101.77 79.41C101.25 78.77 100.98 77.98 100.98 77.04C100.98 76.45 101.1 75.9 101.34 75.38C101.58 74.86 101.95 74.4 102.44 73.99C102.92 73.59 103.52 73.27 104.26 73.04C105 72.81 105.82 72.69 106.73 72.69C107.58 72.69 108.44 72.79 109.31 73C110.18 73.21 110.91 73.46 111.49 73.76V76.33H111.36C110.75 75.88 110 75.5 109.13 75.19C108.25 74.88 107.39 74.72 106.55 74.72C105.67 74.72 104.93 74.89 104.33 75.22C103.73 75.56 103.42 76.06 103.42 76.72C103.42 77.31 103.6 77.75 103.97 78.05C104.33 78.35 104.91 78.59 105.71 78.78C106.15 78.88 106.65 78.98 107.2 79.09C107.75 79.19 108.21 79.29 108.57 79.37C109.68 79.63 110.54 80.06 111.15 80.68C111.73 81.31 112.03 82.15 112.03 83.19Z" fill="#184376"/>
  <path d="M125.82 87.3H123.42V79.18C123.42 78.52 123.38 77.91 123.31 77.34C123.23 76.77 123.09 76.32 122.89 75.99C122.68 75.63 122.37 75.37 121.97 75.19C121.57 75.02 121.05 74.93 120.41 74.93C119.75 74.93 119.07 75.09 118.35 75.41C117.64 75.73 116.95 76.15 116.3 76.65V87.3H113.9V67.44H116.3V74.63C117.05 74.01 117.82 73.52 118.62 73.17C119.42 72.82 120.24 72.65 121.08 72.65C122.62 72.65 123.79 73.11 124.6 74.04C125.41 74.97 125.81 76.3 125.81 78.05V87.3H125.82Z" fill="#184376"/>
  <path d="M139.95 87.3H137.56V85.78C137.35 85.92 137.06 86.13 136.7 86.39C136.34 86.65 135.99 86.86 135.65 87.01C135.25 87.21 134.79 87.37 134.27 87.5C133.75 87.63 133.14 87.7 132.44 87.7C131.16 87.7 130.07 87.27 129.17 86.42C128.28 85.57 127.83 84.48 127.83 83.16C127.83 82.08 128.06 81.21 128.53 80.54C128.99 79.87 129.65 79.35 130.51 78.96C131.38 78.58 132.42 78.32 133.64 78.18C134.86 78.04 136.16 77.94 137.56 77.87V77.5C137.56 76.96 137.46 76.5 137.27 76.15C137.08 75.79 136.8 75.51 136.45 75.31C136.11 75.11 135.7 74.98 135.22 74.91C134.74 74.84 134.25 74.81 133.73 74.81C133.1 74.81 132.4 74.89 131.62 75.06C130.85 75.23 130.05 75.47 129.22 75.78H129.09V73.34C129.56 73.21 130.23 73.07 131.12 72.92C132 72.77 132.88 72.69 133.74 72.69C134.74 72.69 135.62 72.77 136.36 72.94C137.1 73.11 137.75 73.39 138.29 73.79C138.83 74.18 139.23 74.69 139.52 75.31C139.8 75.93 139.94 76.7 139.94 77.62V87.3H139.95ZM137.56 83.79V79.82C136.83 79.86 135.97 79.93 134.98 80.01C133.99 80.1 133.2 80.22 132.63 80.38C131.94 80.58 131.38 80.88 130.96 81.29C130.53 81.7 130.32 82.27 130.32 82.99C130.32 83.81 130.57 84.42 131.06 84.83C131.55 85.24 132.31 85.45 133.32 85.45C134.16 85.45 134.93 85.29 135.63 84.96C136.32 84.64 136.97 84.25 137.56 83.79Z" fill="#184376"/>
  <path d="M34.6599 97.66L34.1299 98.9H33.1699L35.5899 93.41H36.5399L38.9399 98.9H37.9499L37.4199 97.66H34.6599ZM36.0399 94.4L34.9999 96.83H37.0699L36.0399 94.4Z" fill="#184376"/>
  <path d="M43.6299 93.41C45.2799 93.41 46.4699 94.56 46.4699 96.15C46.4699 97.73 45.2699 98.89 43.6099 98.89H41.3799V93.4H43.6299V93.41ZM42.2999 98.06H43.6499C44.7199 98.06 45.5299 97.27 45.5299 96.16C45.5299 95.04 44.6899 94.24 43.6099 94.24H42.2999V98.06Z" fill="#184376"/>
  <path d="M47.9295 97.66L47.3995 98.9H46.4395L48.8595 93.41H49.8095L52.2095 98.9H51.2195L50.6895 97.66H47.9295ZM49.3095 94.4L48.2795 96.84H50.3495L49.3095 94.4Z" fill="#184376"/>
  <path d="M54.2496 94.24V98.9H53.3296V94.24H51.5996V93.41H55.9996V94.24H54.2496Z" fill="#184376"/>
  <path d="M56.8601 97.66L56.3301 98.9H55.3701L57.7901 93.41H58.7401L61.1401 98.9H60.1501L59.6201 97.66H56.8601ZM58.2401 94.4L57.2101 96.84H59.2801L58.2401 94.4Z" fill="#184376"/>
  <path d="M67.2996 93.93L66.9196 94.75C66.3196 94.39 65.7296 94.24 65.3096 94.24C64.7696 94.24 64.4196 94.44 64.4196 94.81C64.4196 96.01 67.3796 95.37 67.3696 97.34C67.3696 98.32 66.5096 98.92 65.2996 98.92C64.4396 98.92 63.6196 98.57 63.0596 98.05L63.4596 97.25C64.0196 97.77 64.7296 98.05 65.3196 98.05C65.9596 98.05 66.3496 97.81 66.3496 97.38C66.3496 96.16 63.3896 96.84 63.3896 94.89C63.3896 93.95 64.1996 93.36 65.3896 93.36C66.0996 93.37 66.7896 93.6 67.2996 93.93Z" fill="#184376"/>
  <path d="M72.8096 94.23L72.2696 94.9C71.8696 94.47 71.2996 94.2 70.7396 94.2C69.6396 94.2 68.7796 95.05 68.7796 96.13C68.7796 97.21 69.6396 98.07 70.7396 98.07C71.2896 98.07 71.8496 97.82 72.2696 97.42L72.8196 98.03C72.2596 98.58 71.4696 98.93 70.6996 98.93C69.0896 98.93 67.8496 97.72 67.8496 96.14C67.8496 94.58 69.1096 93.38 70.7296 93.38C71.4996 93.38 72.2796 93.71 72.8096 94.23Z" fill="#184376"/>
  <path d="M73.6104 98.9V93.41H74.5303V98.9H73.6104Z" fill="#184376"/>
  <path d="M76.7403 94.24V95.72H79.4203V96.55H76.7403V98.06H79.8303V98.89H75.8203V93.4H79.7403V94.23H76.7403V94.24Z" fill="#184376"/>
  <path d="M84.6498 98.9L81.7298 94.97V98.9H80.7998V93.41H81.7098L84.6498 97.35V93.41H85.5598V98.9H84.6498Z" fill="#184376"/>
  <path d="M91.3702 94.23L90.8302 94.9C90.4302 94.47 89.8602 94.2 89.3002 94.2C88.2002 94.2 87.3401 95.05 87.3401 96.13C87.3401 97.21 88.2002 98.07 89.3002 98.07C89.8502 98.07 90.4102 97.82 90.8302 97.42L91.3801 98.03C90.8201 98.58 90.0302 98.93 89.2602 98.93C87.6502 98.93 86.4102 97.72 86.4102 96.14C86.4102 94.58 87.6702 93.38 89.2902 93.38C90.0602 93.38 90.8402 93.71 91.3702 94.23Z" fill="#184376"/>
  <path d="M93.0899 94.24V95.72H95.7699V96.55H93.0899V98.06H96.1799V98.89H92.1699V93.4H96.0899V94.23H93.0899V94.24Z" fill="#184376"/>
  <path d="M103.53 94.23L102.99 94.9C102.59 94.47 102.02 94.2 101.46 94.2C100.36 94.2 99.5003 95.05 99.5003 96.13C99.5003 97.21 100.36 98.07 101.46 98.07C102.01 98.07 102.57 97.82 102.99 97.42L103.54 98.03C102.98 98.58 102.19 98.93 101.42 98.93C99.8103 98.93 98.5703 97.72 98.5703 96.14C98.5703 94.58 99.8303 93.38 101.45 93.38C102.22 93.38 102.99 93.71 103.53 94.23Z" fill="#184376"/>
  <path d="M109.56 96.15C109.56 97.72 108.29 98.93 106.65 98.93C105.01 98.93 103.74 97.72 103.74 96.15C103.74 94.57 105.01 93.38 106.65 93.38C108.29 93.38 109.56 94.58 109.56 96.15ZM104.69 96.15C104.69 97.24 105.59 98.1 106.67 98.1C107.74 98.1 108.62 97.24 108.62 96.15C108.62 95.06 107.74 94.21 106.67 94.21C105.58 94.22 104.69 95.06 104.69 96.15Z" fill="#184376"/>
  <path d="M115.34 98.9L115.33 94.8L113.6 98.33H113L111.27 94.8V98.9H110.4V93.41H111.5L113.31 97.05L115.11 93.41H116.2V98.9H115.34Z" fill="#184376"/>
  <path d="M119.68 93.41C121.06 93.41 121.85 94.09 121.85 95.28C121.85 96.52 121.06 97.24 119.68 97.24H118.42V98.89H117.5V93.4H119.68V93.41ZM118.41 96.41H119.63C120.48 96.41 120.95 96.05 120.95 95.3C120.95 94.58 120.47 94.23 119.63 94.23H118.41V96.41Z" fill="#184376"/>
  <path d="M123.04 97.66L122.51 98.9H121.55L123.97 93.41H124.92L127.32 98.9H126.33L125.8 97.66H123.04ZM124.42 94.4L123.39 96.84H125.46L124.42 94.4Z" fill="#184376"/>
  <path d="M131.74 98.9L128.82 94.97V98.9H127.89V93.41H128.8L131.74 97.35V93.41H132.65V98.9H131.74Z" fill="#184376"/>
  <path d="M136.19 98.9H135.27V97.1L133.22 93.41H134.15L135.72 96.08L137.26 93.41H138.2L136.19 97.07V98.9Z" fill="#184376"/>
  <path d="M31.5998 77.56C31.5998 77.56 31.9198 80.59 35.3898 80.43C38.8598 80.27 45.9198 76.87 45.9198 76.87C45.9198 76.87 45.0498 76.34 42.2898 73.74C42.2898 73.74 37.7698 68.64 33.4898 71.46C30.0098 73.25 29.3398 76.82 29.3398 76.82C29.3398 76.82 30.2698 73.61 34.1098 73.09C34.1098 73.09 37.9198 72.76 39.3998 76.45C39.3998 76.45 37.0598 77.66 36.1198 77.84C35.4098 77.98 34.2098 78.48 31.5998 77.56Z" fill="#B52E25"/>
  <path d="M29.46 81.82C29.46 81.82 30.96 87 36.65 84.99C36.73 84.96 36.82 84.93 36.9 84.9C40.03 83.63 40.38 83.51 41.68 83.03C43.38 82.41 47.36 80.57 49.33 83.79C49.33 83.79 47.62 83.7 44.63 85.14C41.64 86.58 39.47 87.71 37.48 87.81C35.25 87.93 30.98 87.49 29.46 81.82Z" fill="#B52E25"/>
  <path d="M39.5795 71.59C39.5795 71.59 35.5995 68.89 31.0395 70.74C26.4795 72.59 26.0495 77.51 26.0495 77.51C26.0495 77.51 24.8695 84.64 32.1295 87.71C32.1295 87.71 35.4295 89.05 40.0195 87.25C40.0195 87.25 32.5995 88.02 29.8595 82.72C26.9795 77.15 31.9795 72.48 31.9795 72.48C31.9795 72.48 35.6995 69.24 39.5795 71.59Z" fill="#F16622"/>
  <defs>
    <linearGradient id="paint0_linear_52_16" x1="108.207" y1="7.7235" x2="140.666" y2="7.7235" gradientUnits="userSpaceOnUse">
      <stop stop-color="#25A4DD"/>
      <stop offset="0.2665" stop-color="#229FD9"/>
      <stop offset="0.5779" stop-color="#1A91CF"/>
      <stop offset="0.9107" stop-color="#0C7ABE"/>
      <stop offset="1" stop-color="#0872B9"/>
    </linearGradient>
    <linearGradient id="paint1_linear_52_16" x1="94.3858" y1="45.1359" x2="129.125" y2="45.1359" gradientUnits="userSpaceOnUse">
      <stop stop-color="#25A4DD"/>
      <stop offset="0.2613" stop-color="#229ED9"/>
      <stop offset="0.6069" stop-color="#188DCD"/>
      <stop offset="0.9983" stop-color="#0872B9"/>
      <stop offset="1" stop-color="#0872B9"/>
    </linearGradient>
  </defs>
</svg>
